<?xml version="1.0" standalone="no"?>
<!DOCTYPE svg PUBLIC "-//W3C//DTD SVG 20010904//EN"
 "http://www.w3.org/TR/2001/REC-SVG-20010904/DTD/svg10.dtd">
<svg version="1.0" xmlns="http://www.w3.org/2000/svg"
 width="1920.000000pt" height="590.000000pt" viewBox="0 0 1920.000000 590.000000"
 preserveAspectRatio="xMidYMid meet">
<metadata>
Created by potrace 1.12, written by Peter Selinger 2001-2015
</metadata>
<g transform="translate(0.000000,590.000000) scale(0.100000,-0.100000)"
fill="#000000" stroke="none">
<path d="M4608 5872 c-18 -30 -20 -33 -198 -282 -69 -96 -136 -191 -150 -211
-14 -20 -83 -117 -153 -215 -71 -98 -218 -305 -328 -459 -109 -154 -205 -289
-213 -300 -8 -11 -135 -189 -281 -395 -147 -206 -275 -386 -285 -400 -10 -14
-106 -149 -214 -300 -203 -286 -233 -329 -254 -358 -7 -9 -30 -42 -52 -72 -22
-30 -43 -59 -47 -65 -5 -5 -17 -23 -27 -40 -11 -16 -23 -34 -28 -40 -5 -5
-175 -244 -379 -530 -203 -286 -375 -529 -383 -540 -8 -11 -59 -82 -113 -157
-54 -76 -155 -218 -224 -315 -292 -411 -611 -859 -625 -878 -8 -11 -46 -65
-85 -120 -40 -55 -87 -121 -106 -147 l-35 -48 2371 0 2371 0 6 27 c4 16 46
167 95 338 151 533 278 982 340 1205 33 118 64 226 69 240 9 29 17 55 105 370
36 129 74 264 85 300 29 96 61 211 65 229 2 9 13 48 25 86 11 39 22 77 24 87
6 23 163 578 187 658 31 107 90 314 94 330 2 8 65 231 140 495 76 264 143 503
150 530 7 28 32 115 55 195 23 80 44 152 45 160 2 8 4 16 5 18 2 1 3 5 4 10
15 56 168 595 173 610 4 9 -221 12 -1103 12 l-1109 0 -17 -28z"/>
</g>
</svg>
