<?xml version="1.0" standalone="no"?>
<!DOCTYPE svg PUBLIC "-//W3C//DTD SVG 20010904//EN"
 "http://www.w3.org/TR/2001/REC-SVG-20010904/DTD/svg10.dtd">
<svg version="1.0" xmlns="http://www.w3.org/2000/svg"
 width="1920.000000pt" height="590.000000pt" viewBox="0 0 1920.000000 590.000000"
 preserveAspectRatio="xMidYMid meet">
<metadata>
Created by potrace 1.12, written by Peter Selinger 2001-2015
</metadata>
<g transform="translate(0.000000,590.000000) scale(0.100000,-0.100000)"
fill="#000000" stroke="none">
<path d="M6820 5858 c-14 -52 -114 -407 -140 -498 -54 -187 -122 -427 -125
-440 -2 -8 -20 -71 -40 -140 -20 -68 -37 -131 -38 -140 -2 -8 -6 -20 -9 -26
-4 -6 -9 -21 -11 -35 -5 -22 -65 -238 -102 -364 -20 -70 -174 -610 -190 -670
-7 -27 -41 -147 -75 -265 -34 -118 -81 -285 -105 -370 -24 -85 -57 -202 -74
-260 -68 -238 -93 -328 -106 -375 -23 -85 -75 -268 -86 -300 -5 -16 -30 -104
-55 -195 -25 -91 -49 -178 -55 -195 -11 -36 -79 -274 -84 -295 -4 -18 -148
-529 -175 -620 -11 -36 -56 -195 -101 -355 -45 -159 -84 -295 -86 -302 -4 -11
597 -13 3100 -13 l3105 0 31 118 c18 64 36 128 41 142 5 14 29 102 55 195 26
94 51 184 56 200 5 17 27 95 49 175 22 80 47 168 55 195 38 136 116 416 120
432 3 10 15 56 29 103 13 47 51 182 84 300 33 118 93 330 132 470 40 140 74
262 75 270 2 8 16 56 30 105 14 50 28 97 30 106 2 9 13 49 25 89 12 40 23 81
25 92 2 10 40 146 84 301 44 155 112 397 151 537 39 140 80 284 90 320 10 36
44 157 75 270 32 113 72 257 90 320 18 63 54 192 80 285 25 94 55 199 65 235
18 60 97 341 150 535 12 43 24 85 27 92 4 11 -557 13 -3091 13 l-3095 0 -11
-42z"/>
</g>
</svg>
