<?xml version="1.0" standalone="no"?>
<!DOCTYPE svg PUBLIC "-//W3C//DTD SVG 20010904//EN"
 "http://www.w3.org/TR/2001/REC-SVG-20010904/DTD/svg10.dtd">
<svg version="1.0" xmlns="http://www.w3.org/2000/svg"
 width="1920.000000pt" height="590.000000pt" viewBox="0 0 1920.000000 590.000000"
 preserveAspectRatio="xMidYMid meet">
<metadata>
Created by potrace 1.12, written by Peter Selinger 2001-2015
</metadata>
<g transform="translate(0.000000,590.000000) scale(0.100000,-0.100000)"
fill="#000000" stroke="none">
<path d="M12591 4387 c-6 -18 -38 -131 -72 -252 -33 -121 -70 -251 -81 -290
-10 -38 -23 -83 -27 -100 -8 -27 -163 -580 -308 -1095 -30 -107 -63 -224 -73
-260 -9 -36 -37 -132 -60 -215 -23 -82 -55 -195 -70 -250 -15 -55 -51 -183
-80 -285 -70 -248 -110 -392 -115 -410 -2 -8 -28 -103 -58 -210 -57 -199 -79
-277 -83 -295 -1 -5 -41 -147 -89 -315 -48 -168 -90 -318 -94 -335 -5 -16 -11
-40 -15 -52 l-7 -23 2780 0 c1530 0 2781 3 2781 6 0 3 -69 76 -154 162 -85 87
-212 216 -283 288 -70 72 -285 292 -478 488 -192 197 -415 424 -494 504 -79
81 -301 308 -495 505 -193 197 -407 416 -476 487 -69 70 -285 291 -480 490
-195 199 -413 421 -484 493 -70 73 -294 301 -496 507 -202 206 -393 401 -423
432 l-56 57 -10 -32z"/>
</g>
</svg>
