<?xml version="1.0" standalone="no"?>
<!DOCTYPE svg PUBLIC "-//W3C//DTD SVG 20010904//EN"
 "http://www.w3.org/TR/2001/REC-SVG-20010904/DTD/svg10.dtd">
<svg version="1.0" xmlns="http://www.w3.org/2000/svg"
 width="1920.000000pt" height="590.000000pt" viewBox="0 0 1920.000000 590.000000"
 preserveAspectRatio="xMidYMid meet">
<metadata>
Created by potrace 1.12, written by Peter Selinger 2001-2015
</metadata>
<g transform="translate(0.000000,590.000000) scale(0.100000,-0.100000)"
fill="#000000" stroke="none">
<path d="M12982 5788 c-62 -219 -84 -296 -158 -563 -41 -148 -84 -299 -94
-335 -11 -36 -31 -105 -44 -155 -13 -49 -39 -141 -57 -203 l-32 -114 66 -66
c36 -37 113 -116 172 -177 59 -60 277 -283 485 -495 208 -212 432 -441 499
-510 233 -239 385 -390 393 -390 4 0 8 4 8 8 0 5 8 17 18 28 14 16 158 189
360 433 21 25 110 133 200 240 293 353 325 392 681 821 194 234 362 436 374
450 12 14 42 50 66 80 25 30 55 66 67 80 20 24 147 175 225 271 84 102 213
256 237 285 80 93 337 407 340 415 2 5 -719 9 -1885 9 l-1889 0 -32 -112z"/>
</g>
</svg>
